<svg fill="none" height="15" viewBox="0 0 15 15" width="15" xmlns="http://www.w3.org/2000/svg"><path d="m1 0h-1v15h15v-.4937c0-.0021 0-.0042 0-.0063v-12c0-.27614-.2238-.5-.5-.5-.2761 0-.5.22386-.5.5 0 2.1809-.4852 3.83198-1.1727 4.9205-.6898 1.09224-1.5504 1.5795-2.3273 1.5795-.3207 0-.64187-.15761-1.00457-.4924-.3662-.33803-.71325-.79808-1.09539-1.3076l-.01572-.02096c-.36361-.48486-.76144-1.01534-1.20139-1.42144-.4498-.41521-1.00365-.7576-1.68289-.7576-1.29814 0-2.17757.98092-2.70691 2.17193-.53687 1.20797-.79309 2.78248-.79309 4.32807v.1972c0 .8422-.36961 1.6355-1.00004 2.1766z" fill="#000"/></svg>