<svg fill="none" height="15" viewBox="0 0 15 15" width="15" xmlns="http://www.w3.org/2000/svg"><path clip-rule="evenodd" d="m7.5 0c-4.14214 0-7.5 3.35786-7.5 7.5 0 4.1421 3.35786 7.5 7.5 7.5 4.1421 0 7.5-3.3579 7.5-7.5 0-4.14214-3.3579-7.5-7.5-7.5zm-6.30271 5.90436c-.12884.51053-.19729 1.04509-.19729 1.59564 0 3.0736 2.1333 5.6489 5 6.3261v-.619l-1-1v-1.5l-1-.99999v-1.20711c0-.27614.22386-.5.5-.5h4c.82843 0 1.5.67157 1.5 1.5v.5118c.5109.0731.9151.4773.9882.9882h1.99c.6468-1.0103 1.0218-2.21136 1.0218-3.5 0-2.70394-1.651-5.02225-4-6.00182v1.00182c0 .82843-.67154 1.5-1.49996 1.5h-1c-.27614 0-.5.22386-.5.5 0 .82843-.67158 1.5-1.5 1.5h-.5v.70711l-.43934.43934c-.58579.58578-1.53554.58578-2.12132 0z" fill="#000" fill-rule="evenodd"/></svg>